<?xml version="1.0" encoding="UTF-8"?>
<svg width="111px" height="27px" viewBox="0 0 111 27" version="1.1" xmlns="http://www.w3.org/2000/svg" xmlns:xlink="http://www.w3.org/1999/xlink">
    <!-- Generator: Sketch 51.3 (57544) - http://www.bohemiancoding.com/sketch -->
    <title>logo-apple_music</title>
    <desc>Created with Sketch.</desc>
    <defs></defs>
    <g id="Symbols" stroke="none" stroke-width="1" fill="none" fill-rule="evenodd">
        <g id="Slice/Logos/1row" transform="translate(-685.000000, -82.000000)" fill="#6C7782" fill-rule="nonzero">
            <g id="Row" transform="translate(120.000000, 80.000000)">
                <g id="logo-apple_music" transform="translate(565.000000, 2.000000)">
                    <path d="M17.4992719,14.1639953 C17.5161019,15.8385076 18.0913849,17.246431 19.2224431,18.3850529 C19.7367169,18.902344 20.3118085,19.3045526 20.9465704,19.5893533 C20.8779113,19.802857 20.809061,20.0115172 20.7409756,20.2161087 C20.6717427,20.4214753 20.5946686,20.6214171 20.5097533,20.8176777 C20.3209886,21.2995141 20.1108037,21.7534517 19.8791988,22.1810404 C19.6466376,22.608629 19.410634,23.0089001 19.1715702,23.383016 C18.8278923,23.8991447 18.5150057,24.3449452 18.231763,24.7190609 C17.9490941,25.0933705 17.6866978,25.3874709 17.4476341,25.6015559 C16.7604694,26.2600851 16.0231969,26.6078519 15.2339042,26.6429193 C14.7022265,26.6429193 14.015253,26.4650641 13.1752788,26.1078037 C12.419455,25.7699177 11.6909801,25.6015559 10.9879416,25.6015559 C10.2326915,25.6015559 9.47705895,25.7710802 8.7229564,26.1078037 C7.9164511,26.4644829 7.26505032,26.6514439 6.76798907,26.6702369 C5.99476142,26.7060793 5.24085013,26.3490127 4.50223892,25.6013621 C3.98911259,25.1203007 3.38667205,24.3542447 2.70103734,23.3024193 C1.93010472,22.1455856 1.29438652,20.8004347 0.7967515,19.268129 C0.26526508,17.6637513 1.77635684e-15,16.0607297 1.77635684e-15,14.4577082 C1.77635684e-15,12.6762502 0.35936056,11.1439446 1.08095044,9.86117859 C1.64667079,8.82833985 2.40115584,8.01287965 3.34478808,7.41557298 C4.28784659,6.81942877 5.30931797,6.51196017 6.40690725,6.4941359 C7.05907304,6.4941359 7.84874825,6.6896216 8.77402041,7.08194921 C9.70177883,7.47485805 10.3277432,7.66976252 10.6538261,7.66976252 C10.8079744,7.66976252 11.5033629,7.43940325 12.7384616,6.9753911 C13.8867325,6.54702747 14.8305559,6.37033474 15.5687846,6.44046935 C17.64424,6.63750499 19.2138367,7.51844999 20.277957,9.08640423 C18.3908838,10.2972919 17.4640817,11.9898223 17.4992719,14.1639953 Z" id="Shape"></path>
                    <path d="M14.2558468,4.27588655 C15.1658189,3.11750297 15.6206136,1.87057928 15.6206136,0.53414678 L15.6206136,0.26755773 C15.6206136,0.17766145 15.6118161,0.0889276 15.5947947,0 C14.9596503,0.0354548 14.2868294,0.24082133 13.5742283,0.61416223 C12.8625835,0.98885931 12.2752518,1.46158986 11.8110857,2.03080393 C10.8852398,3.15431396 10.4214562,4.35590201 10.4214562,5.63905545 L10.4214562,5.89227628 C10.4214562,5.97306672 10.4300625,6.0573445 10.4472751,6.14685331 C11.8717123,6.28905996 13.1410449,5.66521063 14.2558468,4.27588655" id="Shape"></path>
                    <polygon id="Shape" points="36.1590354 18.9280923 36.034531 18.9280923 30.8084073 6.82967772 26.7043529 6.82967772 26.7043529 26.3495745 30.2813196 26.3495745 30.2813196 13.7077134 30.4473254 13.7077134 34.8147324 23.7462628 37.3227975 23.7462628 41.6766256 13.7077134 41.8433965 13.7077134 41.8433965 26.3495745 45.4610997 26.3495745 45.4610997 6.82967772 41.3853505 6.82967772"></polygon>
                    <polygon id="Shape" points="87.263798 26.3498845 91.2838932 26.3498845 91.2838932 6.82960021 87.263798 6.82960021"></polygon>
                    <path d="M103.42569,9.93280502 C105.809633,9.93280502 107.07036,11.7919535 107.07036,13.7938899 L110.925597,13.7938899 L110.925597,13.3787008 C110.925597,9.60383106 108.083416,6.45784801 103.397767,6.45784801 C98.3795335,6.45784801 95.3851172,9.80416032 95.3851172,15.5100568 L95.3851172,17.7125161 C95.3851172,23.4168626 98.3514195,26.7215204 103.383615,26.7215204 C108.193768,26.7215204 110.925788,23.5315579 110.925788,19.9851101 L110.925788,19.5561653 L107.070934,19.5561653 C107.070934,21.5734073 105.838512,23.2465633 103.454187,23.2465633 C101.013251,23.2465633 99.460484,21.4873858 99.460484,17.7256906 L99.460484,15.5251686 C99.4602926,11.7772291 101.027594,9.93280502 103.42569,9.93280502" id="Shape"></path>
                    <path d="M60.8368548,19.1562624 C60.8368548,21.7741047 59.3259721,23.2176764 57.1074609,23.2176764 C54.876136,23.2176764 53.3654447,21.7876666 53.3654447,19.1562624 L53.3654447,6.8296196 L49.3725071,6.8296196 L49.3725071,19.7283826 C49.3725071,23.8903488 52.2831554,26.7220823 57.1070784,26.7220823 C61.9176139,26.7220823 64.8424149,23.8907364 64.8424149,19.7283826 L64.8424149,6.8296196 L60.8368548,6.8296196 L60.8368548,19.1562624 Z" id="Shape"></path>
                    <path d="M78.1431925,14.9809667 L75.2736632,14.3232125 C73.5826221,13.9647897 72.6959827,13.2072584 72.6959827,12.0771612 C72.6959827,10.5762417 73.9016287,9.63213676 75.843591,9.63213676 C78.0332232,9.63213676 79.1285175,10.9046344 79.225673,12.2778779 L82.9684544,12.2778779 C82.9263792,8.83101349 80.0851548,6.42861234 75.8562136,6.42861234 C71.8510359,6.42861234 68.6890837,8.55977464 68.6890837,12.3923794 C68.6890837,15.7100178 70.9079774,17.2531732 73.5694258,17.8411803 L76.4104589,18.5128838 C78.3241159,18.9559719 79.2941409,19.6003579 79.2941409,20.9294282 C79.2941409,22.4462345 78.1014999,23.4763608 75.8703662,23.4763608 C73.4718879,23.4763608 72.2103964,22.1887514 72.1002359,20.744017 L68.245764,20.744017 C68.3021831,23.5038722 70.1041496,26.7217336 75.6768202,26.7217336 C80.3622775,26.7217336 83.2597296,24.3621494 83.2597296,20.5283822 C83.2587733,16.9819343 80.915949,15.5947415 78.1431925,14.9809667" id="Shape"></path>
                </g>
            </g>
        </g>
    </g>
</svg>