<?xml version="1.0" encoding="UTF-8"?>
<svg width="56px" height="56px" viewBox="0 0 56 56" version="1.1" xmlns="http://www.w3.org/2000/svg" xmlns:xlink="http://www.w3.org/1999/xlink">
    <!-- Generator: Sketch 51.3 (57544) - http://www.bohemiancoding.com/sketch -->
    <title>author-pitchfork</title>
    <desc>Created with Sketch.</desc>
    <defs></defs>
    <g id="author-pitchfork" stroke="none" stroke-width="1" fill="none" fill-rule="evenodd">
        <g fill="#F9FAFB" fill-rule="nonzero" id="Shape">
            <path d="M56,28 C56,43.4 43.4,56 28,56 C12.6,56 0,43.4 0,28 C0,12.6 12.6,0 28,0 C43.4,0 56,12.6 56,28 Z M28,6.72 C16.24,6.72 6.72,16.24 6.72,28 C6.72,39.76 16.24,49.28 28,49.28 C39.76,49.28 49.28,39.76 49.28,28 C49.28,16.24 39.76,6.72 28,6.72 Z"></path>
            <path d="M23.8333333,19 L9.11111111,33.84 C8.55555556,31.88 8,29.92 8,27.68 C8,27.4 8,27.12 8,26.56 L19.6666667,14.8 L16.8888889,12 L26.3333333,12 L26.3333333,21.52 L23.8333333,19 Z M43,38.04 L43,28.52 L33.5555556,28.52 L36.3333333,31.32 L21.6111111,46.16 C23.5555556,46.72 25.5,47 27.4444444,47 C27.7222222,47 28.2777778,47 28.5555556,47 L40.2222222,35.24 L43,38.04 Z M39.9444444,24.6 L39.9444444,15.08 L30.5,15.08 L33.2777778,17.88 L11.8888889,39.44 C13,40.84 14.3888889,42.24 15.7777778,43.36 L36.8888889,22.08 L39.9444444,24.6 Z"></path>
        </g>
    </g>
</svg>