<?xml version="1.0" encoding="UTF-8"?>
<svg width="162px" height="24px" viewBox="0 0 162 24" version="1.1" xmlns="http://www.w3.org/2000/svg" xmlns:xlink="http://www.w3.org/1999/xlink">
    <!-- Generator: Sketch 51.3 (57544) - http://www.bohemiancoding.com/sketch -->
    <title>logo-pioneer</title>
    <desc>Created with Sketch.</desc>
    <defs></defs>
    <g id="Symbols" stroke="none" stroke-width="1" fill="none" fill-rule="evenodd">
        <g id="Slice/Logos/1row" transform="translate(-374.000000, -84.000000)" fill="#6C7782" fill-rule="nonzero">
            <g id="Row" transform="translate(120.000000, 80.000000)">
                <g id="logo-pioneer" transform="translate(254.000000, 4.000000)">
                    <path d="M0.473684,17.4307148 C0.57956943,17.1848501 0.69823554,16.9437641 0.78947982,16.6922965 C1.87583685,13.6974261 2.91592461,10.6841817 4.05534569,7.71048668 C4.90242914,5.49976344 6.20630025,3.59941977 8.17961966,2.24650428 C9.69857813,1.20512189 11.3954144,0.66181344 13.190856,0.42039794 C15.7630065,0.07458879 18.3244794,0.08447611 20.8489855,0.78861837 C22.2919879,1.19119724 23.6403487,1.79498315 24.7815494,2.80909301 C26.5363032,4.368324 26.8715935,6.53200006 25.6374499,8.54851977 C24.5467248,10.3306275 22.8971284,11.3381458 20.9601288,11.9074085 C19.015121,12.4789782 17.0231968,12.5165501 15.0270663,12.3595064 C13.9411946,12.2740634 12.8634929,12.0838148 11.7807759,11.9516543 C11.5280745,11.9208388 11.4294692,11.8103479 11.3770523,11.548993 C11.1423895,10.3808881 10.8774737,9.21904513 10.6246105,8.05473034 C10.608028,7.97818597 10.6009906,7.89949935 10.5819004,7.77022259 C11.3133916,7.90600851 12.0066217,8.05028104 12.7049478,8.16118386 C14.5081549,8.44775146 16.3230102,8.64722823 18.1302618,8.27043879 C18.8015705,8.13053315 19.489381,7.88021907 20.0679085,7.51364654 C21.0733752,6.87665569 21.0450636,5.84878597 20.0862706,5.13137823 C19.3807452,4.60339513 18.5590614,4.38200146 17.7106028,4.286424 C16.1727968,4.11314865 14.6387119,4.15690006 13.142888,4.59869865 C11.2513488,5.15741485 10.0399353,6.4699571 9.37493595,8.31509654 C8.30863972,11.2737958 7.2682284,14.2421353 6.23307494,17.2122874 C6.12848376,17.5123677 5.99339692,17.5997881 5.6893302,17.5973986 C3.95091628,17.5836388 2.2122597,17.5936085 0.473684,17.5955036 L0.473684,17.4307148 Z M144.134896,23.4455036 C144.263188,23.0177944 144.379913,22.5860479 144.523008,22.1635296 C144.658418,21.7637522 144.719491,21.2336268 145.002041,21.0203902 C145.264691,20.822067 145.776646,20.9725191 146.178429,20.9582648 C147.407072,20.9147606 148.621235,20.783012 149.778938,20.3209444 C151.098501,19.7942796 152.044352,18.9259254 152.517803,17.5087423 C153.219122,15.4094163 154.00028,13.3378571 154.747221,11.2543508 C154.788718,11.1385867 154.837171,11.0243881 154.867343,10.905493 C155.070621,10.1037958 154.81614,9.76655569 154.011038,9.76556696 C153.611198,9.76507259 153.211357,9.76548456 152.752304,9.76548456 C153.010749,9.0468409 153.237889,8.37680992 153.502319,7.72243386 C153.540257,7.62858668 153.758013,7.56423668 153.892858,7.56374231 C156.343754,7.55443175 158.794649,7.55715076 161.245545,7.55640921 C161.339135,7.55640921 161.432725,7.54792259 161.526316,7.5433909 L161.526316,7.62578527 C161.471067,7.74772893 161.406841,7.86637682 161.361785,7.99202823 C160.098601,11.5162001 158.843345,15.0432557 157.573529,18.5648733 C156.854171,20.5600529 155.527813,21.9629817 153.539771,22.6505627 C152.830929,22.8957684 152.089489,23.0665719 151.349828,23.1899163 C150.543594,23.3243839 149.722234,23.3643451 148.907425,23.4455036 L144.134896,23.4455036 Z M51.5382237,17.5893652 C51.5674251,17.4705525 51.5818236,17.3771173 51.6131281,17.2899441 C52.2370352,15.5529884 52.8507501,13.8120779 53.4914014,12.081549 C54.2081706,10.1456934 55.556046,8.80966872 57.4318926,8.08097294 C60.2206673,6.99756942 63.1014953,6.81382999 66.0073992,7.48377858 C66.7103361,7.6458483 67.4068827,7.99709548 68.0115378,8.40651308 C69.2295034,9.2311159 69.6623475,10.5760391 69.1913232,11.9860539 C68.5892565,13.7884307 67.9219113,15.5683138 67.2713105,17.3536349 C67.2353952,17.452261 67.0962638,17.5784891 67.0042106,17.5793131 C65.3751604,17.5929905 63.7459485,17.5892004 62.0644813,17.5892004 C62.1238548,17.3997758 62.1659178,17.2462751 62.219629,17.0970589 C62.7707347,15.5664187 63.3249143,14.0369321 63.8756965,12.5061272 C64.2703604,11.409211 63.9089425,10.680268 62.8011495,10.3293504 C61.0318355,9.76882154 59.1163526,10.732506 58.4799076,12.5035729 C57.9112486,14.0860391 57.3471195,15.670318 56.7666506,17.2482525 C56.7170648,17.3830497 56.5604611,17.5734631 56.4515828,17.5748638 C54.8226134,17.5958744 53.1933206,17.5893652 51.5382237,17.5893652 Z M121.667909,7.59000963 C121.637251,7.71533146 121.61986,7.81923076 121.586371,7.91752724 C121.326471,8.68115823 121.053789,9.44042231 120.807074,10.2084202 C120.730632,10.4464575 120.616901,10.5212716 120.374715,10.5180582 C119.350886,10.5044632 118.326896,10.5121258 117.302986,10.512373 C116.011572,10.512785 115.466128,10.8716125 115.017268,12.1065392 C114.405737,13.789197 113.815481,15.4802589 113.244395,17.1775005 C113.130016,17.5174596 112.968963,17.6011723 112.640468,17.5972174 C111.2261,17.5799146 109.811329,17.5898019 108.396638,17.5898019 L107.956675,17.5898019 C108.025756,17.3778012 108.076798,17.2111174 108.134149,17.0467406 C108.813708,15.0977019 109.491488,13.1479216 110.175416,11.200366 C110.771173,9.50403076 111.793061,8.22922513 113.578391,7.76765189 C114.069314,7.64076456 114.588145,7.57666175 115.095085,7.5714709 C117.183106,7.54996597 119.271533,7.56191315 121.359797,7.56306668 C121.450556,7.56314907 121.541315,7.57847442 121.667909,7.59000963 Z M32.9509623,7.56188844 C32.8881106,7.76762717 32.8512246,7.90951027 32.8018815,8.04677928 C31.7063029,11.0962772 30.605871,14.1440448 29.5185433,17.1965913 C29.4179966,17.478792 29.3016763,17.6023835 28.9828876,17.5985934 C27.3666989,17.5794779 25.7501867,17.5897772 24.0724406,17.5897772 C24.1150698,17.4335575 24.1403075,17.30873 24.182775,17.1902469 C25.2903253,14.1014469 26.4032143,11.014542 27.5025947,7.92261097 C27.6017662,7.64370604 27.7342646,7.5521659 28.0243373,7.55480252 C29.6403641,7.56955111 31.2566336,7.56188844 32.9509623,7.56188844 Z M87.8546861,14.107989 C87.5032177,15.0957327 87.1847525,16.0267066 86.8319898,16.9439207 C86.7777124,17.0849798 86.5805827,17.2158221 86.4240599,17.2622101 C83.9920924,17.9836552 81.5022074,18.1658291 78.9844152,18.048582 C77.1835539,17.9647869 75.4219245,17.6726989 73.7579297,16.9281834 C72.7478522,16.4761679 71.8323356,15.8824341 71.1391055,14.9849122 C70.2171985,13.7912651 70.0986942,12.5294777 70.8271115,11.1906517 C71.4368628,10.0698411 72.3577991,9.2905552 73.4447224,8.69434956 C74.9737112,7.85565731 76.6277565,7.44459182 78.3405282,7.25557914 C80.92643,6.97032985 83.4573264,7.21421717 85.8778884,8.21728618 C86.5673976,8.50302985 87.2089387,8.93304604 87.8263745,9.36520449 C88.1598044,9.59862773 88.4403321,9.94649675 88.666097,10.2954369 C89.0783949,10.9325925 89.0028434,11.6278362 88.4240731,12.1070418 C87.9935748,12.4634798 87.4896281,12.7607587 86.9738714,12.9710291 C85.6115975,13.5262848 84.1614767,13.702032 82.7132164,13.8467989 C80.5668726,14.0613538 78.4290222,14.0390249 76.3476334,13.3813531 C75.6353132,13.1562517 74.9579376,12.8162101 74.2425436,12.5195904 C74.1901267,13.0226904 74.4040816,13.4319432 74.7463285,13.7818721 C75.3382839,14.3871411 76.0976014,14.6709073 76.8853922,14.8757397 C78.8454456,15.3855136 80.8345386,15.3721658 82.8287277,15.1679101 C84.4676466,14.9999904 86.0738048,14.6629151 87.6405695,14.139546 C87.6882947,14.1236439 87.7413588,14.1240559 87.8546861,14.107989 Z M76.1337593,10.5573686 C76.4599091,10.6776644 76.6821148,10.7740658 76.9123287,10.8420411 C78.4008724,11.2816975 79.9273537,11.413858 81.4675054,11.3630207 C82.0825954,11.3427517 82.699465,11.2488221 83.30501,11.1317397 C83.4903297,11.0959805 83.640543,10.8717855 83.8068535,10.7338573 C83.6559122,10.5780496 83.5222005,10.396782 83.348529,10.2745911 C83.2103683,10.1773658 83.0272326,10.1290003 82.857282,10.0993383 C82.2347501,9.99066013 81.61238,9.86484393 80.9845093,9.80741506 C79.349635,9.65795168 77.7675821,9.91395097 76.1337593,10.5573686 Z M107.321719,14.1033008 C106.96386,15.0987895 106.636254,16.0414634 106.277829,16.9717782 C106.227758,17.1017141 106.040173,17.2183022 105.8936,17.261724 C103.460824,17.9814388 100.970696,18.1655902 98.4523376,18.0493317 C96.7199904,17.9693268 95.0233159,17.6933057 93.4100393,17.0115747 C92.4814993,16.6191303 91.6282682,16.1042479 90.9228237,15.360062 C89.6065764,13.9714698 89.463077,12.4106733 90.5182912,10.8057958 C91.2712992,9.66059654 92.3422871,8.91245569 93.5579068,8.36906485 C95.786597,7.37266977 98.1353284,7.05981837 100.547154,7.17368738 C102.116669,7.24775992 103.665638,7.50178175 105.114303,8.13094513 C105.922316,8.48186273 106.664404,8.99592118 107.418949,9.46532189 C107.630154,9.5967409 107.797354,9.81665146 107.954686,10.0201655 C108.61103,10.8696515 108.505953,11.6807416 107.653126,12.3323986 C106.949138,12.8704339 106.129395,13.1476909 105.284496,13.3372803 C102.471131,13.9685036 99.6333363,14.2521874 96.789637,13.623024 C95.8297115,13.4106113 94.9228501,12.9491205 93.9926114,12.598862 C93.9083237,12.5671402 93.8309117,12.5166325 93.7080393,12.4529416 C93.6564313,13.0130585 93.8618927,13.4231353 94.199448,13.7720754 C94.7884913,14.3809698 95.5478897,14.6668782 96.3356805,14.8727817 C98.2954912,15.3849451 100.285312,15.3733275 102.279825,15.1693191 C103.918744,15.0017289 105.526115,14.6686909 107.092314,14.1412022 C107.141495,14.1246409 107.195692,14.1234874 107.321719,14.1033008 Z M95.5932691,10.5591895 C95.9362441,10.6836874 96.156832,10.7954141 96.3899579,10.8426261 C97.2063839,11.0079916 98.0217584,11.2026071 98.8474059,11.2906043 C100.106464,11.4247423 101.376765,11.4752501 102.622395,11.1677543 C102.862963,11.1083479 103.06252,10.8760782 103.281004,10.7235663 C103.074411,10.5492198 102.891518,10.2781423 102.656774,10.2184888 C101.942512,10.0368092 101.212882,9.88973527 100.480743,9.81450921 C98.8343017,9.64518879 97.2397916,9.91000428 95.5932691,10.5591895 Z M41.7343085,18.0901499 C39.6459631,18.0575217 37.5680525,17.7452471 35.6290306,16.7702746 C34.7506426,16.3285584 33.9591308,15.7658048 33.353424,14.9648492 C32.4224573,13.733795 32.3618705,12.3265816 33.1906727,11.0221964 C33.8160358,10.0380781 34.7030791,9.35024992 35.7022363,8.81180273 C38.1368732,7.49967245 40.7573152,7.06413583 43.4805688,7.17586259 C45.3403182,7.25215977 47.1424737,7.60777386 48.8291987,8.44926752 C49.6471616,8.85728442 50.3894112,9.37200203 50.9883232,10.0814175 C52.1241042,11.4270823 52.1870369,13.0236379 51.1427428,14.4531802 C50.2692891,15.6488048 49.0575521,16.3785717 47.7362896,16.939595 C45.8319696,17.7483781 43.8334933,18.0646901 41.7343085,18.0901499 Z M42.2525728,14.9727591 C42.5803404,14.9257943 43.0931042,14.8878929 43.5888001,14.7731999 C44.3976224,14.5860823 45.1589621,14.2730661 45.7381368,13.6307196 C46.3948854,12.9024358 46.3660075,12.0051612 45.6552242,11.3362013 C45.4505717,11.1435633 45.2166369,10.9399668 44.9599719,10.8561717 C44.2868836,10.6365084 43.6031177,10.4020964 42.906652,10.3162415 C41.7787173,10.1771598 40.6772338,10.3890781 39.6610896,10.9299147 C39.3555668,11.0924788 39.0599936,11.3045619 38.8160284,11.5514978 C38.0607555,12.3157879 38.106782,13.294221 38.9275761,13.9847682 C39.8373496,14.7501295 40.9356784,14.9218394 42.2525728,14.9727591 Z M128.251046,17.6288651 C128.739462,16.2691108 129.192529,15.0110313 129.643411,13.7521277 C131.03068,9.87835661 132.420942,6.005739 133.796725,2.12776576 C133.911185,1.80510942 134.061317,1.69980942 134.398953,1.70368196 C137.524313,1.73952351 140.650481,1.72905942 143.775355,1.78896013 C145.31397,1.81845731 146.84215,2.03523689 148.263878,2.69117844 C149.880795,3.43725942 151.119387,4.56334323 151.530553,6.40765872 C151.850474,7.842639 151.492939,9.18616154 150.863531,10.4624503 C149.757356,12.7053897 147.965393,14.2498721 145.855692,15.4478862 C143.628054,16.7128869 141.208301,17.3809404 138.682419,17.4772594 C135.237867,17.6086784 131.787571,17.5849489 128.251046,17.6288651 Z M136.249967,15.1384953 C136.625702,15.106032 137.002651,15.0846094 137.37685,15.0392925 C139.387217,14.7957348 141.3027,14.2292735 142.912255,12.9463932 C144.623571,11.5823545 145.690191,9.81927985 145.587136,7.50539886 C145.508754,5.7453728 144.566139,4.59621858 142.869222,4.33576999 C141.850651,4.17938548 140.804092,4.18960238 139.769262,4.17089886 C138.666241,4.15104182 138.452853,4.31179323 138.070484,5.36504041 C137.085806,8.07680379 136.112777,10.7929341 135.135217,13.5073341 C134.677297,14.7788439 134.925307,15.1386601 136.249967,15.1384953 Z" id="Shape"></path>
                </g>
            </g>
        </g>
    </g>
</svg>