<?xml version="1.0" encoding="UTF-8"?>
<svg width="99px" height="16px" viewBox="0 0 99 16" version="1.1" xmlns="http://www.w3.org/2000/svg" xmlns:xlink="http://www.w3.org/1999/xlink">
    <!-- Generator: Sketch 51.3 (57544) - http://www.bohemiancoding.com/sketch -->
    <title>logo-beatport</title>
    <desc>Created with Sketch.</desc>
    <defs></defs>
    <g id="Distribution" stroke="none" stroke-width="1" fill="none" fill-rule="evenodd">
        <g id="CT-Distribution" transform="translate(-884.000000, -810.000000)" fill="#6C7782" fill-rule="nonzero">
            <g id="Background-Copy-3" transform="translate(0.000000, 720.000000)">
                <g id="Group-9" transform="translate(120.000000, 77.000000)">
                    <g id="Group-5">
                        <g id="logo-beatport" transform="translate(764.000000, 13.000000)">
                            <path d="M97.6184568,12.0558152 C97.6744926,12.0550158 98.0105055,12.0460233 98.1354773,12.0460233 L98.1376945,12.0460233 C98.3336181,12.053617 98.6268987,12.1990961 98.6345582,12.4888554 L98.6345582,13.6113229 C98.6139984,13.6848618 98.6373802,13.9600332 98.1574481,14 C97.8242572,14 97.5329922,13.997602 97.5267436,13.997602 C92.8328428,14 93.0007485,9.49334399 93.0007485,9.49334399 L93.0007485,1.45362314 C93.0007485,1.20702801 93.2011065,1 93.4488329,1 L94.5092791,1 C94.7570055,1 94.9722795,1.20702801 94.9722795,1.45282381 L94.9722795,3.14242014 L98.5730802,3.14242014 C98.8371335,3.14242014 99,3.44876564 99,3.58425308 L99,4.71391459 C98.9909295,4.91195007 98.7726319,5.11977742 98.5716692,5.11977742 C98.458993,5.11977742 95.6025809,5.12317459 94.9722795,5.12317459 L94.9722795,9.42300243 C94.9722795,9.42300243 94.8293682,12.0640084 97.6184568,12.0558152" id="Fill-1"></path>
                            <path d="M86.9662213,13.5397574 C86.9662213,13.7889372 86.7515647,14 86.5047497,14 L85.4469427,14 C85.2001278,14 85.0007463,13.7889372 85.0007463,13.5389464 L85.0007463,7.57262137 C85.0007463,7.57262137 84.8333222,3 89.5137615,3.00263575 C89.5197912,3.00263575 91.1918218,3 91.5242582,3 C92.0030148,3.04075276 91.9797001,3.31973679 92,3.39455155 L92,4.53279021 C91.9919604,4.82677775 91.7001239,4.97498802 91.5047622,4.98269252 L91.5025513,4.98269252 C91.3775359,4.98269252 89.6606848,4.97356877 89.6050107,4.97275777 C86.8239209,4.96464777 86.9662213,7.64398938 86.9662213,7.64398938 L86.9662213,13.5397574 Z" id="Fill-3"></path>
                            <path d="M61.6184568,12.056015 C61.6748957,12.0552157 62.010707,12.0462231 62.1356788,12.0462231 L62.1378961,12.0462231 C62.3338196,12.053617 62.6268987,12.1994958 62.6351629,12.4892551 L62.6351629,13.6115227 C62.6137968,13.6848618 62.6377833,13.960233 62.1574481,14 C61.8246603,14 61.5331938,13.9978018 61.5267436,13.9978018 C56.8328428,14.0001998 57.0007485,9.49354383 57.0007485,9.49354383 L57.0007485,1.45382298 C57.0007485,1.20722784 57.2017112,1 57.4488329,1 L58.5094807,1 C58.7572071,1 58.9728842,1.20722784 58.9728842,1.45282381 L58.9728842,3.14261998 L62.5736849,3.14261998 C62.8369319,3.14261998 63,3.44896547 63,3.58425308 L63,4.71371476 C62.991131,4.91234974 62.7728335,5.12017708 62.5716692,5.12017708 C62.4591946,5.12017708 59.6023793,5.12357426 58.9728842,5.12357426 L58.9728842,9.4234021 C58.9728842,9.4234021 58.8295698,12.0638085 61.6184568,12.056015" id="Fill-5"></path>
                            <path d="M43.8399965,11.9973123 C43.8225926,11.9956924 39.0775682,12.0033872 39.0775682,12.0033872 C38.0032157,12.0033872 37.9154137,11.5400758 37.9154137,10.108225 L37.9154137,10.0495011 C38.5405875,10.0490961 40.4358596,10.0468687 42.0024118,10.0468687 C43.8822354,10.0399838 44.947397,8.88312286 45,6.78647693 L44.9978489,6.15144877 C44.9978489,4.17873053 43.8495785,3 41.9208674,3 L39.9229315,3 L39.0556666,3.00303744 C37.081979,3.01862965 36.0846732,4.09327713 36.009582,6.28955119 L36,10.1070101 C36,12.0317367 36.3650921,14 39.0775682,14 L43.8362811,14 C44.171454,14 44.3615288,13.8163359 44.3615288,13.4945694 L44.3615288,12.4484739 C44.3615288,12.284047 44.2938684,12.0074371 43.8399965,11.9973123 M38.8923822,5.00856007 L42.2615157,5.0016752 C42.8696767,5.07923125 43.0875196,5.40221273 43.0875196,6.15225875 L43.0875196,6.91526453 C43.0433252,7.48083649 42.9922866,8.06301314 41.9795324,8.06301314 L37.922258,8.06301314 L37.922258,6.17271087 C37.937902,5.07254888 38.4668651,5.03852951 38.8923822,5.00856007" id="Fill-7"></path>
                            <path d="M83,6.89312991 C83,4.96670777 82.6336709,3 79.9220923,3 L77.047201,3 C75.073757,3.01599279 74.0758866,4.08993872 74,6.28580893 L74,10.8461822 C74,12.8197729 75.1508171,13.996761 77.07869,13.996761 L78.7724487,13.996761 L78.7724487,14 L79.9529946,14 C81.9268298,13.984817 82.9245045,12.9100613 83,10.7141911 L83,6.89312991 Z M80.1161118,11.9954359 L78.7704929,12.017097 L77.07869,12.017097 C76.205798,12.017097 75.9139864,11.7227488 75.9139864,10.8453724 L75.9139864,6.16940575 C75.929242,5.06873769 76.4579059,5.03472772 76.8838882,5.00496899 L79.923657,4.99808602 C80.9968272,4.99808602 81.0883606,5.45924508 81.0883606,6.89009331 L81.0867959,10.831404 C81.0713447,11.9312623 80.5422896,11.9654747 80.1161118,11.9954359 Z" id="Fill-9"></path>
                            <path d="M34.8272708,6.49148657 C34.8272708,4.48635224 34.4358125,2.43900896 31.5237292,2.43900896 L27.2120625,2.43900896 L27.2120625,0.653486567 C27.2120625,0.394173134 26.9920625,0.174979104 26.7333125,0.174979104 L25.6299792,0.174979104 C25.3703958,0.174979104 25.1514375,0.394173134 25.1514375,0.654113433 L25.1514375,10.6064418 C25.1514375,12.6610985 26.3976875,13.8857851 28.4658125,13.8857851 L30.6099792,13.8857851 L31.5816458,13.8857851 C33.6841458,13.8696955 34.7472708,12.7607701 34.8272708,10.4942328 L34.8272708,9.01294925 L34.8272708,9.01044179 L34.8272708,6.49148657 Z M31.7556042,11.8162925 L30.3222708,11.823397 L30.3222708,11.8254866 L28.4658125,11.8254866 C27.5314375,11.8254866 27.2172708,11.5191582 27.2172708,10.605606 L27.2126875,4.5187403 L31.5237292,4.5187403 C32.6756042,4.5187403 32.7656042,4.9989194 32.7656042,6.48835224 L32.7731042,10.6148 C32.7564375,11.7502627 32.2095625,11.7853672 31.7556042,11.8162925 Z" id="Fill-11"></path>
                            <path d="M54.9919899,8.62437669 L54.9919899,6.89119915 C54.9919899,4.9673579 54.6266525,3 51.9172944,3 L47.1626327,3 C46.8273819,3 46.6374845,3.18357959 46.6374845,3.50540048 L46.6374845,4.55081237 C46.6374845,4.71516367 46.7058632,4.99205108 47.1593114,5.00176643 C47.1763084,5.00338565 51.9172944,4.99549193 51.9172944,4.99549193 C52.990058,4.99549193 53.0783641,5.45919738 53.0783641,6.88957992 L53.0779734,6.94868162 C52.4533831,6.94928883 50.5600755,6.95070565 48.9951809,6.95070565 C47.117112,6.95880177 46.0523585,8.11452334 46,10.2104072 L46.0025398,10.8449408 C46.0025398,12.816954 47.1497384,13.9943327 49.0760631,13.9943327 L50.7714633,13.9943327 L50.7765429,14 L51.9557818,14 C53.9274318,13.9842126 54.924002,12.9104642 55,10.7147957 L55,8.62437669 L54.9919899,8.62437669 Z M52.1189138,11.9949951 L48.8074327,12.0022816 C48.1447457,11.9409535 47.911086,11.6221687 47.911086,10.8441312 L47.911086,10.0808692 C47.9548484,9.51596224 48.0058393,8.9342558 49.0174528,8.9342558 L53.0744568,8.9342558 L53.0881325,10.8313798 C53.0728938,11.931643 52.5448152,11.9652419 52.1189138,11.9949951 Z" id="Fill-14"></path>
                            <path d="M72.9397766,6.85624 C72.9397766,4.88024 72.5740319,3.05024 69.926117,3.05024 L67.1345851,3.05024 C65.2486064,3.05024 64.1226489,4.22464 64.1226489,6.18804 L64.1140319,15.54444 C64.1140319,15.82624 64.2469255,16.00004 64.4619681,16.00004 L65.5553723,16.00004 C65.7874574,16.00004 65.9906277,15.78664 65.9906277,15.54644 L65.9917766,13.90244 L69.9205638,13.90244 C72.5690532,13.90244 72.9344149,12.07204 72.9344149,10.09604 L72.9344149,9.24684 L72.9397766,6.85624 Z M70.8109894,11.69524 C70.6390319,11.87284 70.3496915,11.96084 69.9205638,11.96084 L65.9925425,11.96084 L65.9959894,6.18804 C65.9959894,5.32184 66.2937553,5.01204 67.1345851,5.01204 L70.2453298,5.01204 C70.5026915,5.04704 70.6909255,5.12824 70.8157766,5.25724 C71.0656702,5.52524 71.0639468,6.00384 71.0562872,6.55984 C71.0562872,6.59004 71.0515,10.30664 71.0515,10.39264 C71.0587766,10.94884 71.0603085,11.42784 70.8109894,11.69524 Z" id="Fill-16"></path>
                            <path d="M19,7.63053576 C19,3.42302902 15.4113471,0 10.9997889,0 C6.58865286,0 3,3.42302902 3,7.63053576 C3,9.57743386 3.76970577,11.4313061 5.16830716,12.8520645 L5.16872938,12.8516618 C5.35661697,13.0411365 5.66948146,13.0506002 5.86919119,12.8713945 L6.73157409,12.0975886 C6.93001715,11.9193898 6.93993931,11.6215862 6.75437393,11.4313061 L6.75521837,11.4302993 C5.73788099,10.3965446 5.17717377,9.04646165 5.17717377,7.63053576 C5.17717377,4.56833426 7.78923341,2.07677184 10.9997889,2.07677184 C14.2105555,2.07677184 16.8228262,4.56833426 16.8228262,7.63053576 C16.8228262,9.04646165 16.2625412,10.3965446 15.2445705,11.4302993 L15.2464705,11.4321115 C15.0613274,11.622593 15.0716717,11.9197925 15.2701148,12.0975886 L16.1327088,12.8713945 C16.3319963,13.0506002 16.6457052,13.0411365 16.8331706,12.8512591 L16.8323262,12.8508564 C18.2302942,11.4302993 19,9.57662845 19,7.63053576" id="Fill-19"></path>
                            <path d="M22,8.4435117 C22,7.38485982 21.8580434,6.34076619 21.5770684,5.33850193 L21.5774357,5.33850193 C21.5770684,5.33788679 21.5763338,5.33686156 21.5763338,5.33604138 C21.5759665,5.33522119 21.5759665,5.33440101 21.5755992,5.33276064 C21.502509,5.08301476 21.2632212,4.94358356 21.037523,5.02170604 L20.0537433,5.36310743 C19.826576,5.44164001 19.6996781,5.71086525 19.7696464,5.964507 L19.7687282,5.96532718 C19.9918554,6.76418593 20.1062654,7.59769745 20.1062654,8.4435117 C20.1062654,9.93727094 19.7441199,11.4023237 19.058945,12.6807848 L19.0600469,12.6820151 C18.9395766,12.909411 19.005872,13.2034468 19.2097166,13.3398023 L20.0932267,13.9313596 C20.2974386,14.0681252 20.5615184,13.9941037 20.6845597,13.7662977 C21.5451144,12.1601733 22,10.3196815 22,8.4435117" id="Fill-21"></path>
                            <path d="M2.82645882,12.56796 C2.16822353,11.32116 1.82022353,9.89216 1.82022353,8.43496 C1.82022353,7.60996 1.92963529,6.79716 2.14457647,6.01816 L2.14492941,6.01816 L2.14492941,6.01776 L2.14492941,6.01736 C2.21234118,5.76976 2.09022353,5.50736 1.87228235,5.43036 L0.926576471,5.09656 C0.709694118,5.02036 0.4794,5.15656 0.409694118,5.40136 L0.408105882,5.40036 C0.137576471,6.37996 -7.05882353e-05,7.40056 -7.05882353e-05,8.43496 C-7.05882353e-05,10.26456 0.437752941,12.05996 1.26434118,13.62676 L1.26575294,13.62596 C1.38381176,13.84616 1.63687059,13.91776 1.83257647,13.78476 L2.6814,13.20776 C2.8764,13.07516 2.94028235,12.79016 2.82592941,12.56836 L2.82645882,12.56796 Z" id="Fill-23"></path>
                        </g>
                    </g>
                </g>
            </g>
        </g>
    </g>
</svg>