<?xml version="1.0" encoding="UTF-8"?>
<svg width="78px" height="24px" viewBox="0 0 78 24" version="1.1" xmlns="http://www.w3.org/2000/svg" xmlns:xlink="http://www.w3.org/1999/xlink">
    <!-- Generator: Sketch 51.3 (57544) - http://www.bohemiancoding.com/sketch -->
    <title>logo-avid</title>
    <desc>Created with Sketch.</desc>
    <defs></defs>
    <g id="Symbols" stroke="none" stroke-width="1" fill="none" fill-rule="evenodd">
        <g id="Slice/Logos/1row" transform="translate(-1242.000000, -84.000000)" fill="#6C7782" fill-rule="nonzero">
            <g id="Row" transform="translate(120.000000, 80.000000)">
                <g id="logo-avid" transform="translate(1122.000000, 4.000000)">
                    <path d="M13.468843,1.79755955 C12.7089729,0.39779883 11.4691843,0.39779883 10.7493081,1.79755955 L0.31109223,21.1142569 C-0.44877787,22.5140178 0.23110591,23.6338264 1.83083239,23.6338264 L22.4673042,23.6338264 C24.0670313,23.6338264 24.7069214,22.5140178 23.9870444,21.1142569 L13.468843,1.79755955 Z" id="Shape"></path>
                    <path d="M32.0656639,21.91412 C31.3057938,23.313881 30.0660052,23.313881 29.3461281,21.91412 L18.8679199,2.63741597 C18.1080498,1.23765525 18.7879337,0.11784669 20.347667,0.11784669 L40.9441458,0.11784669 C42.5038791,0.11784669 43.183763,1.23765525 42.4238929,2.63741597 L32.0656639,21.91412 Z" id="Shape"></path>
                    <path d="M76.8180127,10.5160694 C78.177779,11.3159325 78.177779,12.5957135 76.8180127,13.3555836 L60.1008705,22.9539425 C58.7411034,23.7138126 57.6212948,23.0739225 57.6212948,21.5141885 L57.6212948,2.31747062 C57.6212948,0.75773729 58.7411034,0.11784669 60.1008705,0.87771682 L76.8180127,10.5160694 Z" id="Shape"></path>
                    <path d="M53.6219782,20.8742984 C53.6219782,22.3940386 52.3821903,23.6338264 50.8624501,23.6338264 L48.3828737,23.6338264 C46.8631335,23.6338264 45.6233456,22.3940386 45.6233456,20.8742984 L45.6233456,2.87737492 C45.6233456,1.35763472 46.8631335,0.07785352 48.3828737,0.07785352 L50.8624501,0.07785352 C52.3821903,0.07785352 53.6219782,1.31764157 53.6219782,2.87737492 L53.6219782,20.8742984 Z" id="Shape"></path>
                </g>
            </g>
        </g>
    </g>
</svg>