<?xml version="1.0" encoding="UTF-8"?>
<svg width="106px" height="32px" viewBox="0 0 106 32" version="1.1" xmlns="http://www.w3.org/2000/svg" xmlns:xlink="http://www.w3.org/1999/xlink">
    <!-- Generator: Sketch 51.3 (57544) - http://www.bohemiancoding.com/sketch -->
    <title>logo-spotify</title>
    <desc>Created with Sketch.</desc>
    <defs></defs>
    <g id="Symbols" stroke="none" stroke-width="1" fill="none" fill-rule="evenodd">
        <g id="Slice/Logos/1row" transform="translate(-120.000000, -80.000000)" fill="#6C7782" fill-rule="nonzero">
            <g id="Row" transform="translate(120.000000, 80.000000)">
                <g id="logo-spotify">
                    <path d="M43.2063439,14.660488 L43.2116388,14.6630441 C46.5509003,15.4755387 47.9146131,16.7364572 47.908953,19.0141808 C47.908953,21.7122106 45.8474077,23.4551484 42.6571341,23.4551484 C40.4018682,23.4551484 38.3120227,22.6541565 36.6129047,21.137074 C36.5398715,21.0735351 36.5318378,20.962342 36.594829,20.8882133 L38.0962094,19.1016381 C38.1268834,19.0651214 38.1710685,19.0422986 38.219453,19.0382817 C38.2652814,19.035543 38.3153091,19.0499671 38.351278,19.0810062 C39.8119423,20.3457589 41.1172286,20.8849267 42.7179343,20.8849267 C44.1590623,20.8849267 45.0544496,20.2614056 45.0544496,19.2584769 C45.0544496,18.3532301 44.6115031,17.8471099 41.987602,17.2425774 C38.9052349,16.4974559 37.121216,15.532322 37.121216,12.8061744 C37.121216,10.2640706 39.1891517,8.48735492 42.1499183,8.48735492 C44.1634443,8.48735492 45.8861154,9.08421892 47.4159788,10.3117248 C47.4902901,10.3710643 47.5052619,10.4782405 47.4503044,10.5560209 L46.1112403,12.4431993 C46.0834876,12.4828198 46.0411284,12.5091118 45.9929265,12.5164151 C45.9449071,12.523901 45.89634,12.5120331 45.8574499,12.483185 C44.5720652,11.524624 43.3462025,11.0592198 42.1099326,11.0592198 C40.8338597,11.0592198 39.9764498,11.6725163 39.9764498,12.5834231 C39.9764498,13.5476442 40.464129,14.006658 43.2063439,14.660488 Z M55.1268628,11.9563964 L55.1290538,11.9562138 C57.6989102,11.9562138 60.3007187,13.9346838 60.2970671,17.7168917 C60.2970671,21.497639 57.6959888,23.4757437 55.1266801,23.4757437 C53.7443439,23.4757437 52.6099554,22.9625027 51.6745823,21.9126502 L51.6745823,26.3185619 C51.6745823,26.4177045 51.5942459,26.4985888 51.4952859,26.4985888 L49.0399089,26.4985888 C48.9407663,26.4985888 48.8609775,26.4177045 48.8609775,26.3185619 L48.8609775,12.3610004 C48.8609775,12.2618578 48.9407663,12.1813387 49.0399089,12.1813387 L51.4954684,12.1813387 C51.5944284,12.1813387 51.674765,12.2618578 51.674765,12.3610004 L51.674765,13.6173544 C52.6097729,12.5012242 53.7439787,11.9563964 55.1268628,11.9563964 Z M57.442381,17.7165266 C57.4425635,15.8222273 56.2289341,14.447377 54.5581166,14.4477421 C52.8796305,14.4477421 51.6128694,15.8525361 51.6128694,17.7165266 C51.6128694,19.5810646 52.8796305,20.9854935 54.5581166,20.9854935 C56.256504,20.9854935 57.442381,19.6420473 57.442381,17.7165266 Z M66.9637951,11.9563599 L66.9641603,11.9569076 C70.2619753,11.9569076 72.8447952,14.4873262 72.8447952,17.7168551 C72.8447952,20.9577043 70.2444473,23.4968869 66.9236267,23.4968869 C63.637497,23.4968869 61.0627108,20.9757801 61.0627108,17.7579364 C61.0627108,14.5043064 63.6548424,11.9563599 66.9637951,11.9563599 Z M66.9637951,21.0046283 C68.7410584,21.0046283 70.0306425,19.6392722 70.0310077,17.7564757 C70.0310077,15.8802522 68.6952302,14.465964 66.9236267,14.465964 C65.1584138,14.465964 63.8772286,15.832233 63.8772286,17.7152119 C63.8772286,19.5907051 65.2036944,21.0046283 66.9637951,21.0046283 Z M79.9107958,12.1809918 L79.9137172,12.181357 C80.0141379,12.181357 80.0939266,12.2620587 80.0900924,12.3612013 L80.0900924,14.471131 C80.0900924,14.5704562 80.0104862,14.651158 79.9113435,14.651158 L77.209297,14.651158 L77.209297,19.7247758 C77.209297,20.5266805 77.5609519,20.8843608 78.3484327,20.8843608 C78.8594826,20.8843608 79.3168532,20.7746283 79.7897433,20.53654 C79.8447008,20.5097003 79.9113435,20.5113436 79.9648404,20.5447562 C80.0176069,20.5772561 80.0501067,20.6358652 80.0501067,20.6977609 L80.0501067,22.7072699 C80.0501067,22.7715391 80.0155985,22.8317916 79.9595454,22.8631958 C79.2706596,23.253741 78.5399622,23.4355937 77.6593642,23.4355937 C75.4937466,23.4355937 74.395327,22.3169073 74.395327,20.1103912 L74.395327,14.6506101 L73.214745,14.6506101 C73.1159676,14.6506101 73.0359961,14.5699085 73.0359961,14.4709485 L73.0359961,12.3608361 C73.0359961,12.2613283 73.1159676,12.1809918 73.214745,12.1809918 L74.395327,12.1809918 L74.395327,9.41869281 C74.395327,9.31955022 74.4758461,9.2388485 74.5749886,9.2388485 L77.0298179,9.2388485 C77.1287779,9.2388485 77.2087493,9.31955022 77.2087493,9.41869281 L77.2087493,12.1809918 L79.9107958,12.1809918 Z M89.3241572,12.1917825 L89.3225139,12.1925128 L93.5177248,12.1925128 C93.5918535,12.1925128 93.6588614,12.2387063 93.685336,12.308453 L96.553168,19.7919847 L99.1715916,12.3132002 C99.1964228,12.241445 99.2648915,12.1925128 99.3415764,12.1925128 L101.897009,12.1925128 C101.957079,12.1925128 102.011123,12.2219087 102.045266,12.2706583 C102.079044,12.3199558 102.085617,12.3823992 102.064072,12.4379044 L97.8047749,23.4441933 C96.921438,25.7160743 95.9196049,26.5605209 94.1063724,26.5605209 C93.1377694,26.5605209 92.3533927,26.3596796 91.4844799,25.8893457 C91.4017698,25.8444302 91.3674441,25.7432792 91.4070646,25.6569174 L92.2394608,23.8312695 C92.2591798,23.7858063 92.2989829,23.7511155 92.3457242,23.7345005 C92.3931957,23.7198937 92.4448667,23.723728 92.4885041,23.747829 C92.9546386,24.0028976 93.4101833,24.1319838 93.84254,24.1319838 C94.3778735,24.1319838 94.7693316,23.9559737 95.1684581,23.0711763 L91.6570208,14.6519065 L89.3645081,14.6519065 L89.3645081,23.0726369 C89.3645081,23.1717795 89.2838064,23.2524811 89.1846638,23.2524811 L86.7294695,23.2524811 C86.6305095,23.2524811 86.5507206,23.1717795 86.5507206,23.0726369 L86.5507206,14.6509936 L85.3714167,14.6509936 C85.272274,14.6509936 85.1910247,14.5702919 85.1910247,14.4713319 L85.1910247,12.3504471 C85.1910247,12.2514871 85.272274,12.1707854 85.3714167,12.1707854 L86.5507206,12.1707854 L86.5507206,11.6511541 C86.5507206,9.2363106 87.7491957,7.95932472 90.0170599,7.95932472 C90.9487812,7.95932472 91.5713894,8.10758216 92.0577907,8.25237053 C92.1341104,8.27555857 92.1845033,8.34548789 92.1845033,8.42454634 L92.1845033,10.4935775 C92.1845033,10.5514563 92.1580287,10.6055009 92.1107397,10.6396439 C92.0645463,10.673787 92.0055719,10.6827335 91.9484234,10.6646578 C91.4883141,10.5114706 91.0771371,10.4097719 90.5653568,10.4097719 C89.7070339,10.4097719 89.3241572,10.8547268 89.3241572,11.8527257 L89.3241572,12.1917825 Z M83.8666402,12.1809918 L83.8662751,12.1817221 C83.9663305,12.1817221 84.0463019,12.2624238 84.0463019,12.3615664 L84.0463019,23.0722534 C84.0463019,23.1713961 83.9654176,23.2520977 83.8666402,23.2520977 L81.4114459,23.2520977 C81.3121207,23.2520977 81.231419,23.1713961 81.231419,23.0722534 L81.231419,12.3608361 C81.231419,12.2613283 81.3121207,12.1809918 81.4114459,12.1809918 L83.8666402,12.1809918 Z M82.6527369,7.30368725 L82.6536497,7.30368725 C83.6249916,7.30368725 84.4137503,8.09135053 84.4137503,9.06378787 C84.4137503,10.0369555 83.6248089,10.8251666 82.6527369,10.8251666 C81.680482,10.8251666 80.8909929,10.0369555 80.8909929,9.06378787 C80.8909929,8.09116795 81.6801169,7.30368725 82.6527369,7.30368725 Z M104.161313,15.625056 C103.189788,15.625056 102.433529,14.844696 102.433529,13.8969073 C102.433529,12.9494838 103.199282,12.1598122 104.170442,12.1598122 C105.142149,12.1598122 105.898225,12.9399896 105.898225,13.8868653 C105.898225,14.8348365 105.131924,15.625056 104.161313,15.625056 Z M104.170807,12.331988 C103.285644,12.331988 102.61593,13.0356631 102.61593,13.8969073 C102.61593,14.7581516 103.28108,15.4523323 104.16186,15.4523323 C105.04684,15.4523323 105.717103,14.7492051 105.717103,13.8872304 C105.717103,13.0261687 105.051405,12.331988 104.171537,12.331988 L104.170807,12.331988 Z M104.553866,14.0648837 L105.042458,14.7490224 L104.630551,14.7490224 L104.190526,14.1213019 L103.812396,14.1213019 L103.812396,14.7490224 L103.467314,14.7490224 L103.467314,12.9352423 L104.27634,12.9352423 C104.697742,12.9352423 104.97472,13.1510555 104.97472,13.5138481 C104.976546,13.8112759 104.803822,13.9929461 104.555509,14.0648837 L104.553866,14.0648837 Z M104.261916,13.2465466 L103.812031,13.2465466 L103.812031,13.8202224 L104.261916,13.8202224 C104.48631,13.8202224 104.620509,13.7103074 104.620509,13.5333845 C104.620509,13.3464194 104.485763,13.2465466 104.261916,13.2465466 Z M15.8808912,0 L15.8808912,0.000730320988 C24.6523637,0.000730320988 31.7617826,7.11069696 31.7617826,15.8805261 C31.7617826,24.6519985 24.6518159,31.7616001 15.8808912,31.7616001 C7.10996663,31.7616001 0,24.6519985 0,15.8805261 C0,7.10978404 7.11033181,0 15.8808912,0 Z M25.2742416,14.0780663 C25.9779167,14.497277 26.8919274,14.2644835 27.3093123,13.5586174 C27.7276101,12.8538469 27.4960947,11.9423923 26.7902287,11.5233642 C20.8973606,8.02543805 11.5721139,7.69605823 5.96243215,9.39901036 C5.17714245,9.63746382 4.73456113,10.4665735 4.97228426,11.2518632 C5.21000739,12.0366051 6.03984737,12.4795516 6.82477191,12.2416459 C11.7114247,10.7585238 20.1551605,11.038241 25.2742416,14.0780663 Z M25.1073606,18.5807469 L25.1068129,18.5807469 C25.4652234,17.999585 25.2811797,17.2371182 24.699105,16.8785251 C19.7969325,13.8660873 12.6272613,13.0183542 6.85982786,14.7684128 C6.20618053,14.9676109 5.83699759,15.6577749 6.0341873,16.3125176 C6.23283766,16.9663475 6.92464484,17.3355305 7.57938767,17.1376104 C12.6285394,15.6051909 19.1363471,16.3651016 23.404226,18.9884549 C23.9861182,19.3463177 24.7482198,19.163552 25.1073606,18.5807469 Z M23.1635815,22.9044962 L23.1635815,22.9048613 C23.4498717,22.438179 23.3019795,21.8294471 22.8354798,21.5433395 C18.6493981,18.9857161 13.4603878,18.3903128 7.41104609,19.7733794 C6.87680807,19.8947971 6.54450692,20.4257486 6.6664724,20.9583433 C6.78770755,21.4909382 7.31884165,21.8247 7.85143641,21.7027345 C13.379321,20.439625 18.073166,20.9548743 21.8024249,23.2340585 C22.2691071,23.5187055 22.8782042,23.3724565 23.1635815,22.9044962 Z" id="shape"></path>
                </g>
            </g>
        </g>
    </g>
</svg>